<svg width="32" height="32" viewBox="0 0 32 32" fill="none" xmlns="http://www.w3.org/2000/svg">
<g clip-path="url(#clip0)">
<path d="M24.3743 26.9095L18.9799 23.3132C18.7386 23.1539 18.4154 23.2064 18.2368 23.4338L16.6662 25.4531C16.1571 26.1165 15.2384 26.3059 14.5085 25.8978L14.2182 25.7383C13.1705 25.1668 11.8662 24.4557 9.27703 21.8666C6.68787 19.2774 5.97627 17.9731 5.40526 16.9249L5.24523 16.6345C4.8372 15.9048 5.02655 14.9862 5.68989 14.4774L7.70867 12.9062C7.93635 12.7278 7.98886 12.4044 7.82926 12.1631L4.23356 6.7682C4.07002 6.5234 3.74326 6.44976 3.49051 6.60073L1.23343 7.95417C0.749192 8.23679 0.393048 8.69577 0.239512 9.23502C-0.501783 11.9345 0.121797 16.6613 7.30114 23.8413C14.4805 31.0212 19.2062 31.6459 21.9079 30.904C22.4473 30.7503 22.9062 30.394 23.1888 29.9095L24.5417 27.6524C24.693 27.3998 24.6193 27.0729 24.3743 26.9095Z" fill="#5E95BF"/>
<path d="M31.9088 0.947486C31.8496 0.888347 31.7691 0.855527 31.6855 0.856465H7.73706C7.65341 0.855527 7.57289 0.888347 7.51376 0.947486C7.45462 1.00662 7.4218 1.08714 7.42274 1.17079V9.49158L8.78074 11.5286C9.27054 12.2687 9.10956 13.2608 8.41096 13.808L6.39394 15.3793C6.17801 15.543 6.11525 15.8406 6.24646 16.0777L6.41106 16.3778C6.93587 17.3759 7.57602 18.309 8.31838 19.1579H31.6855C31.8569 19.1591 31.9973 19.0218 31.9998 18.8504V1.17079C32.0008 1.08714 31.968 1.00662 31.9088 0.947486ZM15.6698 11.3423V11.3394L9.81472 17.6123C9.59942 17.8432 9.23772 17.8558 9.00685 17.6406C8.77592 17.4253 8.76329 17.0636 8.97853 16.8327L14.8336 10.5627C15.0489 10.3318 15.4106 10.3191 15.6414 10.5344C15.8724 10.7497 15.8851 11.1114 15.6698 11.3423ZM19.7113 10.8919C19.2993 10.8938 18.898 10.7614 18.5681 10.5147L9.0151 3.27071C8.76354 3.0791 8.71491 2.71983 8.90651 2.46821C9.09812 2.21665 9.45739 2.16802 9.70901 2.35962L19.2581 9.60361C19.5283 9.79996 19.8943 9.79996 20.1646 9.60361L29.7164 2.35962C29.968 2.16883 30.3266 2.21809 30.5175 2.46965C30.7084 2.72121 30.659 3.07985 30.4075 3.27071L20.8544 10.5147C20.5245 10.7614 20.1232 10.8938 19.7113 10.8919ZM30.452 17.6403C30.3412 17.7439 30.1937 17.7991 30.0421 17.7938C29.8905 17.7886 29.7473 17.7233 29.6439 17.6123L23.7894 11.3394C23.5905 11.1063 23.6108 10.7578 23.8355 10.5494C24.0601 10.341 24.4092 10.3469 24.6267 10.5627L30.4801 16.8327C30.6952 17.0635 30.6827 17.425 30.452 17.6403Z" fill="#5E95BF"/>
</g>
<defs>
<clipPath id="clip0">
<rect width="32" height="32" fill="white"/>
</clipPath>
</defs>
</svg>
