<svg width="30" height="30" viewBox="0 0 30 30" fill="none" xmlns="http://www.w3.org/2000/svg">
<path d="M13.4148 22.0282H16.3214V15.0103H18.272C18.272 15.0103 18.4547 13.8778 18.5437 12.6395H16.3327V11.0245C16.3327 10.7832 16.6493 10.4591 16.9631 10.4591H18.5469V8H16.3929C13.3433 8 13.4148 10.3639 13.4148 10.7169V12.6477H12V15.0094H13.4148V22.0282Z" fill="#65656C"/>
<path d="M7 0C3.13401 0 0 3.13401 0 7V23C0 26.866 3.13401 30 7 30H23C26.866 30 30 26.866 30 23V7C30 3.13401 26.866 0 23 0H7ZM29 22C29 25.866 25.866 29 22 29H8C4.13401 29 1 25.866 1 22V8C1 4.13401 4.13401 1 8 1H22C25.866 1 29 4.13401 29 8V22Z" fill="#65656C"/>
</svg>
