<svg width="33" height="33" viewBox="0 0 33 33" fill="none" xmlns="http://www.w3.org/2000/svg">
<path d="M0.705232 33C0.519121 33 0.338068 32.9267 0.203795 32.7915C0.0267874 32.6133 -0.0414869 32.3545 0.0250174 32.1125L2.1797 24.2784C0.83824 21.8632 0.130969 19.131 0.13198 16.3575C0.135774 7.33784 7.50788 0 16.5661 0C20.9597 0.00176239 25.088 1.70574 28.191 4.79748C31.2934 7.88947 33.0013 11.9996 33 16.3706C32.996 25.3905 25.6238 32.7288 16.5661 32.7288C16.5661 32.7288 16.5593 32.7288 16.559 32.7288C13.9133 32.7278 11.2903 32.0858 8.95479 30.8698L0.88401 32.9771C0.824839 32.9924 0.764656 33 0.705232 33Z" fill="#E5E5E5"/>
<path d="M0.705078 32.2941L2.93638 24.1814C1.56002 21.807 0.836064 19.1136 0.837075 16.3543C0.840615 7.72198 7.89613 0.698975 16.566 0.698975C20.7732 0.700737 24.7222 2.33117 27.6919 5.29042C30.6613 8.24968 32.2961 12.1833 32.2946 16.3669C32.2908 24.9989 25.2343 32.0229 16.566 32.0229C16.5654 32.0229 16.5662 32.0229 16.566 32.0229H16.5591C13.9268 32.0219 11.3404 31.3645 9.04314 30.117L0.705078 32.2941ZM9.42927 27.2829L9.90694 27.5646C11.9137 28.7505 14.2145 29.3776 16.5609 29.3789H16.566C23.7712 29.3789 29.6357 23.5409 29.6387 16.3658C29.64 12.8887 28.2816 9.61903 25.8133 7.15953C23.3448 4.70003 20.0629 3.34478 16.5708 3.34327C9.35973 3.34327 3.49547 9.18046 3.49269 16.3553C3.49168 18.814 4.18252 21.2083 5.49136 23.2803L5.80239 23.7728L4.48141 28.5745L9.42927 27.2829Z" fill="#FEFEFE"/>
<path d="M1.25195 31.7483L3.40613 23.9162C2.07706 21.6242 1.37839 19.0237 1.37915 16.3603C1.38243 8.02702 8.19393 1.24731 16.5631 1.24731C20.6252 1.24908 24.4377 2.82309 27.3039 5.67984C30.1709 8.53658 31.7488 12.3339 31.7473 16.3722C31.7438 24.7058 24.932 31.4862 16.5639 31.4862C16.5631 31.4862 16.5641 31.4862 16.5639 31.4862H16.557C14.016 31.4852 11.5189 30.8503 9.30124 29.6468L1.25195 31.7483Z" fill="#64B161"/>
<path d="M0.705078 32.2941L2.93638 24.1814C1.56002 21.807 0.836064 19.1136 0.837075 16.3543C0.840615 7.72198 7.89613 0.698975 16.566 0.698975C20.7732 0.700737 24.7222 2.33117 27.6919 5.29042C30.6613 8.24968 32.2961 12.1833 32.2946 16.3669C32.2908 24.9989 25.2343 32.0229 16.566 32.0229C16.5654 32.0229 16.5662 32.0229 16.566 32.0229H16.5591C13.9268 32.0219 11.3404 31.3645 9.04314 30.117L0.705078 32.2941ZM9.42927 27.2829L9.90694 27.5646C11.9137 28.7505 14.2145 29.3776 16.5609 29.3789H16.566C23.7712 29.3789 29.6357 23.5409 29.6387 16.3658C29.64 12.8887 28.2816 9.61903 25.8133 7.15953C23.3448 4.70003 20.0629 3.34478 16.5708 3.34327C9.35973 3.34327 3.49547 9.18046 3.49269 16.3553C3.49168 18.814 4.18252 21.2083 5.49136 23.2803L5.80239 23.7728L4.48141 28.5745L9.42927 27.2829Z" fill="#FEFEFE"/>
<path fill-rule="evenodd" clip-rule="evenodd" d="M12.6355 9.80906C12.3412 9.15752 12.0312 9.14443 11.751 9.1331C11.5219 9.12328 11.2597 9.12378 10.998 9.12378C10.736 9.12378 10.3102 9.22197 9.95007 9.61344C9.58974 10.0049 8.57422 10.9515 8.57422 12.8767C8.57422 14.8021 9.98269 16.6623 10.1792 16.9236C10.3756 17.1847 12.898 21.2616 16.8926 22.83C20.2125 24.1336 20.8879 23.8742 21.6085 23.809C22.3292 23.7438 23.9337 22.8625 24.2611 21.9488C24.5888 21.0352 24.5888 20.2523 24.4905 20.0884C24.3921 19.9255 24.1301 19.8276 23.7372 19.632C23.3442 19.4363 21.4121 18.4895 21.0517 18.3591C20.6914 18.2284 20.4294 18.1635 20.1675 18.5552C19.9052 18.9464 19.1527 19.8276 18.9233 20.0884C18.694 20.35 18.4646 20.3827 18.0717 20.1868C17.6787 19.9907 16.4129 19.5778 14.9113 18.2448C13.7431 17.2078 12.9541 15.9269 12.7248 15.5352C12.4957 15.144 12.721 14.9506 12.8975 14.7369C13.2154 14.3519 13.7487 13.6599 13.8796 13.3991C14.0106 13.1377 13.9451 12.9094 13.847 12.7135C13.7487 12.5179 12.9847 10.5829 12.6355 9.80906Z" fill="#FEFEFE"/>
</svg>
